<svg width="42" height="42" viewBox="0 0 42 42" fill="none" xmlns="http://www.w3.org/2000/svg">
<path d="M32.375 19.2869H13.1025L19.0013 11.8133C19.2771 11.4633 19.4098 11.012 19.3702 10.5587C19.3305 10.1054 19.1219 9.68735 18.79 9.3964C18.4581 9.10544 18.0303 8.96546 17.6006 9.00725C17.1709 9.04904 16.7746 9.26918 16.4987 9.61923L8.37375 19.904C8.31909 19.9858 8.2702 20.0718 8.2275 20.1611C8.2275 20.2469 8.2275 20.2983 8.11375 20.384C8.04009 20.5805 8.00153 20.7897 8 21.0011C8.00153 21.2124 8.04009 21.4216 8.11375 21.6182C8.11375 21.7039 8.11375 21.7553 8.2275 21.841C8.2702 21.9304 8.31909 22.0163 8.37375 22.0981L16.4987 32.3829C16.6515 32.5764 16.8429 32.732 17.0591 32.8387C17.2754 32.9453 17.5113 33.0004 17.75 33C18.1297 33.0008 18.4976 32.8613 18.79 32.6057C18.9545 32.4618 19.0906 32.2851 19.1903 32.0857C19.29 31.8862 19.3514 31.668 19.371 31.4435C19.3906 31.219 19.3681 30.9926 19.3046 30.7773C19.2412 30.562 19.1381 30.362 19.0013 30.1888L13.1025 22.7152H32.375C32.806 22.7152 33.2193 22.5346 33.524 22.2131C33.8288 21.8917 34 21.4557 34 21.0011C34 20.5465 33.8288 20.1105 33.524 19.789C33.2193 19.4675 32.806 19.2869 32.375 19.2869Z" fill="white"/>
</svg>
