<svg width="1581" height="1412" viewBox="0 0 1581 1412" fill="none" xmlns="http://www.w3.org/2000/svg">
<rect width="1581" height="1412" fill="white"/>
<path d="M823 473H631C622.168 473 615 480.168 615 489C615 497.832 622.168 505 631 505H823C831.832 505 839 497.832 839 489C839 480.168 831.832 473 823 473Z" fill="#E4E3E3"/>
<path d="M759 537H631C622.168 537 615 544.168 615 553C615 561.832 622.168 569 631 569H759C767.832 569 775 561.832 775 553C775 544.168 767.832 537 759 537Z" fill="#E4E3E3"/>
<path d="M871 377H583C547.704 377 519 405.704 519 441V761C519 767.208 522.584 772.872 528.216 775.496C530.36 776.488 532.696 777 535 777C538.68 777 542.328 775.72 545.24 773.288L636.792 697H871C906.296 697 935 668.296 935 633V441C935 405.704 906.296 377 871 377ZM903 633C903 650.632 888.664 665 871 665H631C627.256 665 623.64 666.312 620.76 668.712L551 726.856V441C551 423.368 565.336 409 583 409H871C888.664 409 903 423.368 903 441V633Z" fill="#E4E3E3"/>
<path d="M967 505C958.168 505 951 512.168 951 521C951 529.832 958.168 537 967 537C984.664 537 999 551.368 999 569V839.688L944.984 796.488C942.168 794.248 938.616 793 935 793H711C693.336 793 679 778.632 679 761V745C679 736.168 671.832 729 663 729C654.168 729 647 736.168 647 745V761C647 796.296 675.704 825 711 825H929.368L1004.98 885.512C1007.9 887.816 1011.45 889 1015 889C1017.34 889 1019.7 888.488 1021.94 887.432C1027.48 884.744 1031 879.144 1031 873V569C1031 533.704 1002.3 505 967 505Z" fill="#E4E3E3"/>
<path d="M432.373 1006.6C426.653 1006.6 422.173 1005.22 418.933 1002.46C415.733 999.66 414.033 995.62 413.833 990.34C413.793 989.26 413.773 987.5 413.773 985.06C413.773 982.58 413.793 980.78 413.833 979.66C414.033 974.46 415.773 970.46 419.053 967.66C422.333 964.82 426.773 963.4 432.373 963.4C435.893 963.4 439.053 964 441.853 965.2C444.653 966.36 446.853 968.04 448.453 970.24C450.093 972.4 450.933 974.94 450.973 977.86V977.98C450.973 978.3 450.833 978.58 450.553 978.82C450.313 979.02 450.033 979.12 449.713 979.12H441.613C441.093 979.12 440.693 979.02 440.413 978.82C440.133 978.58 439.893 978.16 439.693 977.56C439.133 975.52 438.253 974.1 437.053 973.3C435.853 972.46 434.273 972.04 432.313 972.04C427.593 972.04 425.153 974.68 424.993 979.96C424.953 981.04 424.933 982.7 424.933 984.94C424.933 987.18 424.953 988.88 424.993 990.04C425.153 995.32 427.593 997.96 432.313 997.96C434.273 997.96 435.873 997.54 437.113 996.7C438.353 995.82 439.213 994.4 439.693 992.44C439.853 991.84 440.073 991.44 440.353 991.24C440.633 991 441.053 990.88 441.613 990.88H449.713C450.073 990.88 450.373 991 450.613 991.24C450.893 991.48 451.013 991.78 450.973 992.14C450.933 995.06 450.093 997.62 448.453 999.82C446.853 1001.98 444.653 1003.66 441.853 1004.86C439.053 1006.02 435.893 1006.6 432.373 1006.6ZM458.122 1006C457.722 1006 457.362 1005.86 457.042 1005.58C456.762 1005.26 456.622 1004.9 456.622 1004.5V964.9C456.622 964.46 456.762 964.1 457.042 963.82C457.362 963.54 457.722 963.4 458.122 963.4H465.802C466.242 963.4 466.602 963.54 466.882 963.82C467.162 964.1 467.302 964.46 467.302 964.9V978.28C469.702 975.56 472.862 974.2 476.782 974.2C479.102 974.2 481.162 974.72 482.962 975.76C484.802 976.8 486.242 978.34 487.282 980.38C488.322 982.42 488.842 984.88 488.842 987.76V1004.5C488.842 1004.9 488.702 1005.26 488.422 1005.58C488.142 1005.86 487.782 1006 487.342 1006H479.602C479.202 1006 478.842 1005.86 478.522 1005.58C478.242 1005.26 478.102 1004.9 478.102 1004.5V988.12C478.102 986.24 477.642 984.8 476.722 983.8C475.842 982.76 474.542 982.24 472.822 982.24C471.102 982.24 469.742 982.76 468.742 983.8C467.782 984.8 467.302 986.24 467.302 988.12V1004.5C467.302 1004.94 467.162 1005.3 466.882 1005.58C466.602 1005.86 466.242 1006 465.802 1006H458.122ZM510.405 1006.6C505.445 1006.6 501.625 1005.42 498.945 1003.06C496.265 1000.7 494.805 997.38 494.565 993.1C494.525 992.58 494.505 991.68 494.505 990.4C494.505 989.12 494.525 988.22 494.565 987.7C494.805 983.46 496.305 980.16 499.065 977.8C501.825 975.4 505.605 974.2 510.405 974.2C515.245 974.2 519.045 975.4 521.805 977.8C524.565 980.16 526.065 983.46 526.305 987.7C526.345 988.22 526.365 989.12 526.365 990.4C526.365 991.68 526.345 992.58 526.305 993.1C526.065 997.38 524.605 1000.7 521.925 1003.06C519.245 1005.42 515.405 1006.6 510.405 1006.6ZM510.405 999.28C512.165 999.28 513.465 998.76 514.305 997.72C515.145 996.64 515.625 995 515.745 992.8C515.785 992.4 515.805 991.6 515.805 990.4C515.805 989.2 515.785 988.4 515.745 988C515.625 985.84 515.125 984.22 514.245 983.14C513.405 982.06 512.125 981.52 510.405 981.52C507.085 981.52 505.325 983.68 505.125 988L505.065 990.4L505.125 992.8C505.205 995 505.665 996.64 506.505 997.72C507.385 998.76 508.685 999.28 510.405 999.28ZM547.085 1006.6C542.125 1006.6 538.305 1005.42 535.625 1003.06C532.945 1000.7 531.485 997.38 531.245 993.1C531.205 992.58 531.185 991.68 531.185 990.4C531.185 989.12 531.205 988.22 531.245 987.7C531.485 983.46 532.985 980.16 535.745 977.8C538.505 975.4 542.285 974.2 547.085 974.2C551.925 974.2 555.725 975.4 558.485 977.8C561.245 980.16 562.745 983.46 562.985 987.7C563.025 988.22 563.045 989.12 563.045 990.4C563.045 991.68 563.025 992.58 562.985 993.1C562.745 997.38 561.285 1000.7 558.605 1003.06C555.925 1005.42 552.085 1006.6 547.085 1006.6ZM547.085 999.28C548.845 999.28 550.145 998.76 550.985 997.72C551.825 996.64 552.305 995 552.425 992.8C552.465 992.4 552.485 991.6 552.485 990.4C552.485 989.2 552.465 988.4 552.425 988C552.305 985.84 551.805 984.22 550.925 983.14C550.085 982.06 548.805 981.52 547.085 981.52C543.765 981.52 542.005 983.68 541.805 988L541.745 990.4L541.805 992.8C541.885 995 542.345 996.64 543.185 997.72C544.065 998.76 545.365 999.28 547.085 999.28ZM581.845 1006.6C578.605 1006.6 575.885 1006.14 573.685 1005.22C571.525 1004.3 569.925 1003.2 568.885 1001.92C567.845 1000.64 567.325 999.5 567.325 998.5C567.325 998.1 567.465 997.78 567.745 997.54C568.065 997.26 568.405 997.12 568.765 997.12H575.605C575.845 997.12 576.065 997.22 576.265 997.42C576.745 997.74 577.105 998 577.345 998.2C578.225 998.84 578.985 999.32 579.625 999.64C580.305 999.92 581.125 1000.06 582.085 1000.06C583.245 1000.06 584.185 999.84 584.905 999.4C585.665 998.92 586.045 998.26 586.045 997.42C586.045 996.74 585.845 996.2 585.445 995.8C585.085 995.4 584.365 995.02 583.285 994.66C582.205 994.26 580.565 993.84 578.365 993.4C575.045 992.72 572.485 991.62 570.685 990.1C568.925 988.54 568.045 986.46 568.045 983.86C568.045 982.22 568.565 980.66 569.605 979.18C570.645 977.7 572.185 976.5 574.225 975.58C576.305 974.66 578.765 974.2 581.605 974.2C584.445 974.2 586.925 974.64 589.045 975.52C591.165 976.4 592.765 977.48 593.845 978.76C594.965 980 595.525 981.14 595.525 982.18C595.525 982.54 595.385 982.86 595.105 983.14C594.865 983.42 594.565 983.56 594.205 983.56H587.965C587.645 983.56 587.345 983.46 587.065 983.26C586.545 982.98 586.085 982.68 585.685 982.36C585.005 981.84 584.365 981.44 583.765 981.16C583.165 980.88 582.425 980.74 581.545 980.74C580.505 980.74 579.665 980.98 579.025 981.46C578.425 981.94 578.125 982.56 578.125 983.32C578.125 983.92 578.285 984.42 578.605 984.82C578.965 985.22 579.685 985.62 580.765 986.02C581.885 986.38 583.525 986.76 585.685 987.16C589.565 987.84 592.385 989.04 594.145 990.76C595.945 992.48 596.845 994.5 596.845 996.82C596.845 999.78 595.525 1002.16 592.885 1003.96C590.245 1005.72 586.565 1006.6 581.845 1006.6ZM616.569 1006.6C611.769 1006.6 607.989 1005.3 605.229 1002.7C602.469 1000.1 601.029 996.32 600.909 991.36V989.26C601.069 984.54 602.529 980.86 605.289 978.22C608.089 975.54 611.829 974.2 616.509 974.2C619.909 974.2 622.769 974.9 625.089 976.3C627.449 977.66 629.209 979.54 630.369 981.94C631.569 984.34 632.169 987.1 632.169 990.22V991.66C632.169 992.06 632.029 992.42 631.749 992.74C631.469 993.02 631.109 993.16 630.669 993.16H611.469V993.58C611.549 995.46 612.009 996.98 612.849 998.14C613.689 999.3 614.909 999.88 616.509 999.88C617.509 999.88 618.329 999.68 618.969 999.28C619.609 998.84 620.189 998.32 620.709 997.72C621.069 997.28 621.349 997.02 621.549 996.94C621.789 996.82 622.149 996.76 622.629 996.76H630.069C630.429 996.76 630.729 996.88 630.969 997.12C631.249 997.32 631.389 997.6 631.389 997.96C631.389 999 630.789 1000.2 629.589 1001.56C628.429 1002.92 626.729 1004.1 624.489 1005.1C622.249 1006.1 619.609 1006.6 616.569 1006.6ZM621.609 987.22V987.1C621.609 985.14 621.149 983.6 620.229 982.48C619.349 981.32 618.109 980.74 616.509 980.74C614.949 980.74 613.709 981.32 612.789 982.48C611.909 983.6 611.469 985.14 611.469 987.1V987.22H621.609ZM665.355 1006C657.075 1006 652.935 1002.06 652.935 994.18V982.66H648.255C647.815 982.66 647.435 982.52 647.115 982.24C646.835 981.96 646.695 981.6 646.695 981.16V976.3C646.695 975.86 646.835 975.5 647.115 975.22C647.435 974.94 647.815 974.8 648.255 974.8H652.935V964.9C652.935 964.46 653.075 964.1 653.355 963.82C653.675 963.54 654.035 963.4 654.435 963.4H661.395C661.835 963.4 662.195 963.54 662.475 963.82C662.755 964.1 662.895 964.46 662.895 964.9V974.8H670.395C670.835 974.8 671.195 974.94 671.475 975.22C671.795 975.5 671.955 975.86 671.955 976.3V981.16C671.955 981.6 671.795 981.96 671.475 982.24C671.195 982.52 670.835 982.66 670.395 982.66H662.895V993.34C662.895 996.3 664.035 997.78 666.315 997.78H670.935C671.375 997.78 671.735 997.92 672.015 998.2C672.295 998.48 672.435 998.84 672.435 999.28V1004.5C672.435 1004.9 672.295 1005.26 672.015 1005.58C671.735 1005.86 671.375 1006 670.935 1006H665.355ZM678.903 1006C678.503 1006 678.143 1005.86 677.823 1005.58C677.543 1005.26 677.403 1004.9 677.403 1004.5V964.9C677.403 964.46 677.543 964.1 677.823 963.82C678.143 963.54 678.503 963.4 678.903 963.4H686.583C687.023 963.4 687.383 963.54 687.663 963.82C687.943 964.1 688.083 964.46 688.083 964.9V978.28C690.483 975.56 693.643 974.2 697.563 974.2C699.883 974.2 701.943 974.72 703.743 975.76C705.583 976.8 707.023 978.34 708.063 980.38C709.103 982.42 709.623 984.88 709.623 987.76V1004.5C709.623 1004.9 709.483 1005.26 709.203 1005.58C708.923 1005.86 708.563 1006 708.123 1006H700.383C699.983 1006 699.623 1005.86 699.303 1005.58C699.023 1005.26 698.883 1004.9 698.883 1004.5V988.12C698.883 986.24 698.423 984.8 697.503 983.8C696.623 982.76 695.323 982.24 693.603 982.24C691.883 982.24 690.523 982.76 689.523 983.8C688.563 984.8 688.083 986.24 688.083 988.12V1004.5C688.083 1004.94 687.943 1005.3 687.663 1005.58C687.383 1005.86 687.023 1006 686.583 1006H678.903ZM730.827 1006.6C726.027 1006.6 722.247 1005.3 719.487 1002.7C716.727 1000.1 715.287 996.32 715.167 991.36V989.26C715.327 984.54 716.787 980.86 719.547 978.22C722.347 975.54 726.087 974.2 730.767 974.2C734.167 974.2 737.027 974.9 739.347 976.3C741.707 977.66 743.467 979.54 744.627 981.94C745.827 984.34 746.427 987.1 746.427 990.22V991.66C746.427 992.06 746.287 992.42 746.007 992.74C745.727 993.02 745.367 993.16 744.927 993.16H725.727V993.58C725.807 995.46 726.267 996.98 727.107 998.14C727.947 999.3 729.167 999.88 730.767 999.88C731.767 999.88 732.587 999.68 733.227 999.28C733.867 998.84 734.447 998.32 734.967 997.72C735.327 997.28 735.607 997.02 735.807 996.94C736.047 996.82 736.407 996.76 736.887 996.76H744.327C744.687 996.76 744.987 996.88 745.227 997.12C745.507 997.32 745.647 997.6 745.647 997.96C745.647 999 745.047 1000.2 743.847 1001.56C742.687 1002.92 740.987 1004.1 738.747 1005.1C736.507 1006.1 733.867 1006.6 730.827 1006.6ZM735.867 987.22V987.1C735.867 985.14 735.407 983.6 734.487 982.48C733.607 981.32 732.367 980.74 730.767 980.74C729.207 980.74 727.967 981.32 727.047 982.48C726.167 983.6 725.727 985.14 725.727 987.1V987.22H735.867ZM766.325 1017.4C765.925 1017.4 765.565 1017.26 765.245 1016.98C764.965 1016.7 764.825 1016.34 764.825 1015.9V976.3C764.825 975.86 764.965 975.5 765.245 975.22C765.565 974.94 765.925 974.8 766.325 974.8H773.105C773.545 974.8 773.905 974.94 774.185 975.22C774.465 975.5 774.605 975.86 774.605 976.3V978.46C776.765 975.62 779.865 974.2 783.905 974.2C787.825 974.2 790.885 975.42 793.085 977.86C795.285 980.3 796.485 983.74 796.685 988.18C796.725 988.7 796.745 989.44 796.745 990.4C796.745 991.36 796.725 992.1 796.685 992.62C796.525 996.94 795.325 1000.36 793.085 1002.88C790.845 1005.36 787.785 1006.6 783.905 1006.6C779.985 1006.6 777.065 1005.26 775.145 1002.58V1015.9C775.145 1016.34 775.005 1016.7 774.725 1016.98C774.445 1017.26 774.085 1017.4 773.645 1017.4H766.325ZM780.665 998.56C782.545 998.56 783.885 998 784.685 996.88C785.525 995.76 786.005 994.22 786.125 992.26C786.205 991.46 786.245 990.84 786.245 990.4C786.245 989.96 786.205 989.34 786.125 988.54C786.005 986.58 785.525 985.04 784.685 983.92C783.885 982.8 782.545 982.24 780.665 982.24C778.825 982.24 777.465 982.82 776.585 983.98C775.745 985.1 775.265 986.56 775.145 988.36L775.085 990.58L775.145 992.86C775.225 994.5 775.725 995.86 776.645 996.94C777.565 998.02 778.905 998.56 780.665 998.56ZM817.077 1006.6C812.277 1006.6 808.497 1005.3 805.737 1002.7C802.977 1000.1 801.537 996.32 801.417 991.36V989.26C801.577 984.54 803.037 980.86 805.797 978.22C808.597 975.54 812.337 974.2 817.017 974.2C820.417 974.2 823.277 974.9 825.597 976.3C827.957 977.66 829.717 979.54 830.877 981.94C832.077 984.34 832.677 987.1 832.677 990.22V991.66C832.677 992.06 832.537 992.42 832.257 992.74C831.977 993.02 831.617 993.16 831.177 993.16H811.977V993.58C812.057 995.46 812.517 996.98 813.357 998.14C814.197 999.3 815.417 999.88 817.017 999.88C818.017 999.88 818.837 999.68 819.477 999.28C820.117 998.84 820.697 998.32 821.217 997.72C821.577 997.28 821.857 997.02 822.057 996.94C822.297 996.82 822.657 996.76 823.137 996.76H830.577C830.937 996.76 831.237 996.88 831.477 997.12C831.757 997.32 831.897 997.6 831.897 997.96C831.897 999 831.297 1000.2 830.097 1001.56C828.937 1002.92 827.237 1004.1 824.997 1005.1C822.757 1006.1 820.117 1006.6 817.077 1006.6ZM822.117 987.22V987.1C822.117 985.14 821.657 983.6 820.737 982.48C819.857 981.32 818.617 980.74 817.017 980.74C815.457 980.74 814.217 981.32 813.297 982.48C812.417 983.6 811.977 985.14 811.977 987.1V987.22H822.117ZM839.802 1006C839.362 1006 839.002 1005.86 838.722 1005.58C838.442 1005.3 838.302 1004.94 838.302 1004.5V976.3C838.302 975.86 838.442 975.5 838.722 975.22C839.002 974.94 839.362 974.8 839.802 974.8H846.702C847.142 974.8 847.502 974.96 847.782 975.28C848.102 975.56 848.262 975.9 848.262 976.3V978.7C850.462 976.1 853.422 974.8 857.142 974.8H859.782C860.222 974.8 860.582 974.94 860.862 975.22C861.142 975.5 861.282 975.86 861.282 976.3V982.48C861.282 982.88 861.142 983.24 860.862 983.56C860.582 983.84 860.222 983.98 859.782 983.98H853.962C852.322 983.98 851.042 984.44 850.122 985.36C849.242 986.24 848.802 987.5 848.802 989.14V1004.5C848.802 1004.94 848.642 1005.3 848.322 1005.58C848.042 1005.86 847.682 1006 847.242 1006H839.802ZM878.388 1006.6C875.148 1006.6 872.428 1006.14 870.228 1005.22C868.068 1004.3 866.468 1003.2 865.428 1001.92C864.388 1000.64 863.868 999.5 863.868 998.5C863.868 998.1 864.008 997.78 864.288 997.54C864.608 997.26 864.948 997.12 865.308 997.12H872.148C872.388 997.12 872.608 997.22 872.808 997.42C873.288 997.74 873.648 998 873.888 998.2C874.768 998.84 875.528 999.32 876.168 999.64C876.848 999.92 877.668 1000.06 878.628 1000.06C879.788 1000.06 880.728 999.84 881.448 999.4C882.208 998.92 882.588 998.26 882.588 997.42C882.588 996.74 882.388 996.2 881.988 995.8C881.628 995.4 880.908 995.02 879.828 994.66C878.748 994.26 877.108 993.84 874.908 993.4C871.588 992.72 869.028 991.62 867.228 990.1C865.468 988.54 864.588 986.46 864.588 983.86C864.588 982.22 865.108 980.66 866.148 979.18C867.188 977.7 868.728 976.5 870.768 975.58C872.848 974.66 875.308 974.2 878.148 974.2C880.988 974.2 883.468 974.64 885.588 975.52C887.708 976.4 889.308 977.48 890.388 978.76C891.508 980 892.068 981.14 892.068 982.18C892.068 982.54 891.928 982.86 891.648 983.14C891.408 983.42 891.108 983.56 890.748 983.56H884.508C884.188 983.56 883.888 983.46 883.608 983.26C883.088 982.98 882.628 982.68 882.228 982.36C881.548 981.84 880.908 981.44 880.308 981.16C879.708 980.88 878.968 980.74 878.088 980.74C877.048 980.74 876.208 980.98 875.568 981.46C874.968 981.94 874.668 982.56 874.668 983.32C874.668 983.92 874.828 984.42 875.148 984.82C875.508 985.22 876.228 985.62 877.308 986.02C878.428 986.38 880.068 986.76 882.228 987.16C886.108 987.84 888.928 989.04 890.688 990.76C892.488 992.48 893.388 994.5 893.388 996.82C893.388 999.78 892.068 1002.16 889.428 1003.96C886.788 1005.72 883.108 1006.6 878.388 1006.6ZM913.472 1006.6C908.512 1006.6 904.692 1005.42 902.012 1003.06C899.332 1000.7 897.872 997.38 897.632 993.1C897.592 992.58 897.572 991.68 897.572 990.4C897.572 989.12 897.592 988.22 897.632 987.7C897.872 983.46 899.372 980.16 902.132 977.8C904.892 975.4 908.672 974.2 913.472 974.2C918.312 974.2 922.112 975.4 924.872 977.8C927.632 980.16 929.132 983.46 929.372 987.7C929.412 988.22 929.432 989.12 929.432 990.4C929.432 991.68 929.412 992.58 929.372 993.1C929.132 997.38 927.672 1000.7 924.992 1003.06C922.312 1005.42 918.472 1006.6 913.472 1006.6ZM913.472 999.28C915.232 999.28 916.532 998.76 917.372 997.72C918.212 996.64 918.692 995 918.812 992.8C918.852 992.4 918.872 991.6 918.872 990.4C918.872 989.2 918.852 988.4 918.812 988C918.692 985.84 918.192 984.22 917.312 983.14C916.472 982.06 915.192 981.52 913.472 981.52C910.152 981.52 908.392 983.68 908.192 988L908.132 990.4L908.192 992.8C908.272 995 908.732 996.64 909.572 997.72C910.452 998.76 911.752 999.28 913.472 999.28ZM936.892 1006C936.452 1006 936.092 1005.86 935.812 1005.58C935.532 1005.3 935.392 1004.94 935.392 1004.5V976.3C935.392 975.86 935.532 975.5 935.812 975.22C936.092 974.94 936.452 974.8 936.892 974.8H943.792C944.232 974.8 944.592 974.94 944.872 975.22C945.192 975.5 945.352 975.86 945.352 976.3V978.58C946.432 977.26 947.812 976.2 949.492 975.4C951.212 974.6 953.152 974.2 955.312 974.2C958.832 974.2 961.692 975.4 963.892 977.8C966.092 980.16 967.192 983.48 967.192 987.76V1004.5C967.192 1004.9 967.052 1005.26 966.772 1005.58C966.492 1005.86 966.132 1006 965.692 1006H958.132C957.732 1006 957.372 1005.86 957.052 1005.58C956.772 1005.26 956.632 1004.9 956.632 1004.5V988.12C956.632 986.24 956.172 984.8 955.252 983.8C954.332 982.76 953.012 982.24 951.292 982.24C949.612 982.24 948.292 982.76 947.332 983.8C946.372 984.8 945.892 986.24 945.892 988.12V1004.5C945.892 1004.9 945.752 1005.26 945.472 1005.58C945.192 1005.86 944.832 1006 944.392 1006H936.892ZM1001.51 1006C993.228 1006 989.088 1002.06 989.088 994.18V982.66H984.408C983.968 982.66 983.588 982.52 983.268 982.24C982.988 981.96 982.848 981.6 982.848 981.16V976.3C982.848 975.86 982.988 975.5 983.268 975.22C983.588 974.94 983.968 974.8 984.408 974.8H989.088V964.9C989.088 964.46 989.228 964.1 989.508 963.82C989.828 963.54 990.188 963.4 990.588 963.4H997.548C997.988 963.4 998.348 963.54 998.628 963.82C998.908 964.1 999.048 964.46 999.048 964.9V974.8H1006.55C1006.99 974.8 1007.35 974.94 1007.63 975.22C1007.95 975.5 1008.11 975.86 1008.11 976.3V981.16C1008.11 981.6 1007.95 981.96 1007.63 982.24C1007.35 982.52 1006.99 982.66 1006.55 982.66H999.048V993.34C999.048 996.3 1000.19 997.78 1002.47 997.78H1007.09C1007.53 997.78 1007.89 997.92 1008.17 998.2C1008.45 998.48 1008.59 998.84 1008.59 999.28V1004.5C1008.59 1004.9 1008.45 1005.26 1008.17 1005.58C1007.89 1005.86 1007.53 1006 1007.09 1006H1001.51ZM1028.32 1006.6C1023.36 1006.6 1019.54 1005.42 1016.86 1003.06C1014.18 1000.7 1012.72 997.38 1012.48 993.1C1012.44 992.58 1012.42 991.68 1012.42 990.4C1012.42 989.12 1012.44 988.22 1012.48 987.7C1012.72 983.46 1014.22 980.16 1016.98 977.8C1019.74 975.4 1023.52 974.2 1028.32 974.2C1033.16 974.2 1036.96 975.4 1039.72 977.8C1042.48 980.16 1043.98 983.46 1044.22 987.7C1044.26 988.22 1044.28 989.12 1044.28 990.4C1044.28 991.68 1044.26 992.58 1044.22 993.1C1043.98 997.38 1042.52 1000.7 1039.84 1003.06C1037.16 1005.42 1033.32 1006.6 1028.32 1006.6ZM1028.32 999.28C1030.08 999.28 1031.38 998.76 1032.22 997.72C1033.06 996.64 1033.54 995 1033.66 992.8C1033.7 992.4 1033.72 991.6 1033.72 990.4C1033.72 989.2 1033.7 988.4 1033.66 988C1033.54 985.84 1033.04 984.22 1032.16 983.14C1031.32 982.06 1030.04 981.52 1028.32 981.52C1025 981.52 1023.24 983.68 1023.04 988L1022.98 990.4L1023.04 992.8C1023.12 995 1023.58 996.64 1024.42 997.72C1025.3 998.76 1026.6 999.28 1028.32 999.28ZM1077.35 1006.6C1072.83 1006.6 1069.17 1005.4 1066.37 1003C1063.57 1000.56 1062.07 997.18 1061.87 992.86L1061.81 990.46L1061.87 988C1062.03 983.68 1063.51 980.3 1066.31 977.86C1069.15 975.42 1072.83 974.2 1077.35 974.2C1080.75 974.2 1083.61 974.82 1085.93 976.06C1088.29 977.26 1090.03 978.72 1091.15 980.44C1092.31 982.12 1092.93 983.66 1093.01 985.06C1093.05 985.46 1092.91 985.82 1092.59 986.14C1092.31 986.42 1091.95 986.56 1091.51 986.56H1083.89C1083.45 986.56 1083.11 986.46 1082.87 986.26C1082.63 986.06 1082.41 985.76 1082.21 985.36C1081.73 984.12 1081.11 983.24 1080.35 982.72C1079.63 982.2 1078.69 981.94 1077.53 981.94C1074.25 981.94 1072.55 984.06 1072.43 988.3L1072.37 990.58L1072.43 992.56C1072.51 994.72 1072.97 996.32 1073.81 997.36C1074.69 998.36 1075.93 998.86 1077.53 998.86C1078.77 998.86 1079.75 998.6 1080.47 998.08C1081.19 997.56 1081.77 996.68 1082.21 995.44C1082.41 995.04 1082.63 994.74 1082.87 994.54C1083.11 994.34 1083.45 994.24 1083.89 994.24H1091.51C1091.91 994.24 1092.25 994.38 1092.53 994.66C1092.85 994.9 1093.01 995.22 1093.01 995.62C1093.01 996.9 1092.45 998.4 1091.33 1000.12C1090.25 1001.84 1088.53 1003.36 1086.17 1004.68C1083.81 1005.96 1080.87 1006.6 1077.35 1006.6ZM1099.9 1006C1099.5 1006 1099.14 1005.86 1098.82 1005.58C1098.54 1005.26 1098.4 1004.9 1098.4 1004.5V964.9C1098.4 964.46 1098.54 964.1 1098.82 963.82C1099.14 963.54 1099.5 963.4 1099.9 963.4H1107.58C1108.02 963.4 1108.38 963.54 1108.66 963.82C1108.94 964.1 1109.08 964.46 1109.08 964.9V978.28C1111.48 975.56 1114.64 974.2 1118.56 974.2C1120.88 974.2 1122.94 974.72 1124.74 975.76C1126.58 976.8 1128.02 978.34 1129.06 980.38C1130.1 982.42 1130.62 984.88 1130.62 987.76V1004.5C1130.62 1004.9 1130.48 1005.26 1130.2 1005.58C1129.92 1005.86 1129.56 1006 1129.12 1006H1121.38C1120.98 1006 1120.62 1005.86 1120.3 1005.58C1120.02 1005.26 1119.88 1004.9 1119.88 1004.5V988.12C1119.88 986.24 1119.42 984.8 1118.5 983.8C1117.62 982.76 1116.32 982.24 1114.6 982.24C1112.88 982.24 1111.52 982.76 1110.52 983.8C1109.56 984.8 1109.08 986.24 1109.08 988.12V1004.5C1109.08 1004.94 1108.94 1005.3 1108.66 1005.58C1108.38 1005.86 1108.02 1006 1107.58 1006H1099.9ZM1146.78 1006.6C1144.66 1006.6 1142.72 1006.2 1140.96 1005.4C1139.24 1004.56 1137.88 1003.44 1136.88 1002.04C1135.92 1000.6 1135.44 999.02 1135.44 997.3C1135.44 994.54 1136.56 992.32 1138.8 990.64C1141.08 988.96 1144.2 987.8 1148.16 987.16L1155.66 986.02V985.18C1155.66 983.66 1155.34 982.54 1154.7 981.82C1154.06 981.1 1152.98 980.74 1151.46 980.74C1150.54 980.74 1149.78 980.9 1149.18 981.22C1148.58 981.54 1147.96 981.98 1147.32 982.54C1146.76 983.02 1146.34 983.34 1146.06 983.5C1145.94 983.82 1145.72 983.98 1145.4 983.98H1138.86C1138.46 983.98 1138.12 983.86 1137.84 983.62C1137.6 983.34 1137.5 983.02 1137.54 982.66C1137.58 981.58 1138.1 980.38 1139.1 979.06C1140.14 977.74 1141.7 976.6 1143.78 975.64C1145.9 974.68 1148.5 974.2 1151.58 974.2C1156.5 974.2 1160.14 975.3 1162.5 977.5C1164.86 979.66 1166.04 982.58 1166.04 986.26V1004.5C1166.04 1004.9 1165.9 1005.26 1165.62 1005.58C1165.34 1005.86 1164.98 1006 1164.54 1006H1157.58C1157.18 1006 1156.82 1005.86 1156.5 1005.58C1156.22 1005.26 1156.08 1004.9 1156.08 1004.5V1002.4C1155.2 1003.64 1153.96 1004.66 1152.36 1005.46C1150.8 1006.22 1148.94 1006.6 1146.78 1006.6ZM1149.6 999.76C1151.44 999.76 1152.92 999.16 1154.04 997.96C1155.2 996.76 1155.78 995 1155.78 992.68V991.84L1150.68 992.74C1147.08 993.38 1145.28 994.64 1145.28 996.52C1145.28 997.52 1145.7 998.32 1146.54 998.92C1147.38 999.48 1148.4 999.76 1149.6 999.76ZM1188.54 1006C1180.26 1006 1176.12 1002.06 1176.12 994.18V982.66H1171.44C1171 982.66 1170.62 982.52 1170.3 982.24C1170.02 981.96 1169.88 981.6 1169.88 981.16V976.3C1169.88 975.86 1170.02 975.5 1170.3 975.22C1170.62 974.94 1171 974.8 1171.44 974.8H1176.12V964.9C1176.12 964.46 1176.26 964.1 1176.54 963.82C1176.86 963.54 1177.22 963.4 1177.62 963.4H1184.58C1185.02 963.4 1185.38 963.54 1185.66 963.82C1185.94 964.1 1186.08 964.46 1186.08 964.9V974.8H1193.58C1194.02 974.8 1194.38 974.94 1194.66 975.22C1194.98 975.5 1195.14 975.86 1195.14 976.3V981.16C1195.14 981.6 1194.98 981.96 1194.66 982.24C1194.38 982.52 1194.02 982.66 1193.58 982.66H1186.08V993.34C1186.08 996.3 1187.22 997.78 1189.5 997.78H1194.12C1194.56 997.78 1194.92 997.92 1195.2 998.2C1195.48 998.48 1195.62 998.84 1195.62 999.28V1004.5C1195.62 1004.9 1195.48 1005.26 1195.2 1005.58C1194.92 1005.86 1194.56 1006 1194.12 1006H1188.54ZM433.154 1077C432.594 1077 432.154 1076.88 431.834 1076.64C431.554 1076.36 431.334 1075.98 431.174 1075.5L422.534 1047.72L422.414 1047.12C422.414 1046.76 422.554 1046.46 422.834 1046.22C423.114 1045.94 423.434 1045.8 423.794 1045.8H429.974C430.454 1045.8 430.854 1045.94 431.174 1046.22C431.494 1046.46 431.694 1046.74 431.774 1047.06L436.814 1064.22L442.214 1047.12C442.294 1046.8 442.494 1046.5 442.814 1046.22C443.134 1045.94 443.554 1045.8 444.074 1045.8H448.034C448.554 1045.8 448.974 1045.94 449.294 1046.22C449.614 1046.5 449.814 1046.8 449.894 1047.12L455.294 1064.22L460.334 1047.06C460.414 1046.74 460.614 1046.46 460.934 1046.22C461.254 1045.94 461.654 1045.8 462.134 1045.8H468.314C468.674 1045.8 468.994 1045.94 469.274 1046.22C469.554 1046.46 469.694 1046.76 469.694 1047.12L469.574 1047.72L460.934 1075.5C460.774 1075.98 460.534 1076.36 460.214 1076.64C459.934 1076.88 459.514 1077 458.954 1077H453.554C452.514 1077 451.854 1076.5 451.574 1075.5L446.054 1059.06L440.534 1075.5C440.254 1076.5 439.594 1077 438.554 1077H433.154ZM476.168 1041.3C475.728 1041.3 475.368 1041.16 475.088 1040.88C474.808 1040.6 474.668 1040.24 474.668 1039.8V1034.4C474.668 1033.96 474.808 1033.6 475.088 1033.32C475.368 1033.04 475.728 1032.9 476.168 1032.9H483.368C483.808 1032.9 484.168 1033.04 484.448 1033.32C484.728 1033.6 484.868 1033.96 484.868 1034.4V1039.8C484.868 1040.24 484.728 1040.6 484.448 1040.88C484.168 1041.16 483.808 1041.3 483.368 1041.3H476.168ZM476.228 1077C475.788 1077 475.428 1076.86 475.147 1076.58C474.868 1076.3 474.728 1075.94 474.728 1075.5V1047.3C474.728 1046.86 474.868 1046.5 475.147 1046.22C475.428 1045.94 475.788 1045.8 476.228 1045.8H483.308C483.748 1045.8 484.108 1045.94 484.388 1046.22C484.668 1046.5 484.808 1046.86 484.808 1047.3V1075.5C484.808 1075.9 484.668 1076.26 484.388 1076.58C484.108 1076.86 483.748 1077 483.308 1077H476.228ZM507.855 1077C499.575 1077 495.435 1073.06 495.435 1065.18V1053.66H490.755C490.315 1053.66 489.935 1053.52 489.615 1053.24C489.335 1052.96 489.195 1052.6 489.195 1052.16V1047.3C489.195 1046.86 489.335 1046.5 489.615 1046.22C489.935 1045.94 490.315 1045.8 490.755 1045.8H495.435V1035.9C495.435 1035.46 495.575 1035.1 495.855 1034.82C496.175 1034.54 496.535 1034.4 496.935 1034.4H503.895C504.335 1034.4 504.695 1034.54 504.975 1034.82C505.255 1035.1 505.395 1035.46 505.395 1035.9V1045.8H512.895C513.335 1045.8 513.695 1045.94 513.975 1046.22C514.295 1046.5 514.455 1046.86 514.455 1047.3V1052.16C514.455 1052.6 514.295 1052.96 513.975 1053.24C513.695 1053.52 513.335 1053.66 512.895 1053.66H505.395V1064.34C505.395 1067.3 506.535 1068.78 508.815 1068.78H513.435C513.875 1068.78 514.235 1068.92 514.515 1069.2C514.795 1069.48 514.935 1069.84 514.935 1070.28V1075.5C514.935 1075.9 514.795 1076.26 514.515 1076.58C514.235 1076.86 513.875 1077 513.435 1077H507.855ZM521.403 1077C521.003 1077 520.643 1076.86 520.323 1076.58C520.043 1076.26 519.903 1075.9 519.903 1075.5V1035.9C519.903 1035.46 520.043 1035.1 520.323 1034.82C520.643 1034.54 521.003 1034.4 521.403 1034.4H529.083C529.523 1034.4 529.883 1034.54 530.163 1034.82C530.443 1035.1 530.583 1035.46 530.583 1035.9V1049.28C532.983 1046.56 536.143 1045.2 540.063 1045.2C542.383 1045.2 544.443 1045.72 546.243 1046.76C548.083 1047.8 549.523 1049.34 550.563 1051.38C551.603 1053.42 552.123 1055.88 552.123 1058.76V1075.5C552.123 1075.9 551.983 1076.26 551.703 1076.58C551.423 1076.86 551.063 1077 550.623 1077H542.883C542.483 1077 542.123 1076.86 541.803 1076.58C541.523 1076.26 541.383 1075.9 541.383 1075.5V1059.12C541.383 1057.24 540.923 1055.8 540.003 1054.8C539.123 1053.76 537.823 1053.24 536.103 1053.24C534.383 1053.24 533.023 1053.76 532.023 1054.8C531.063 1055.8 530.583 1057.24 530.583 1059.12V1075.5C530.583 1075.94 530.443 1076.3 530.163 1076.58C529.883 1076.86 529.523 1077 529.083 1077H521.403ZM575.744 1077C575.344 1077 574.984 1076.86 574.664 1076.58C574.384 1076.26 574.244 1075.9 574.244 1075.5V1053.66H569.684C569.244 1053.66 568.884 1053.52 568.604 1053.24C568.324 1052.96 568.184 1052.6 568.184 1052.16V1047.3C568.184 1046.86 568.324 1046.5 568.604 1046.22C568.884 1045.94 569.244 1045.8 569.684 1045.8H574.244V1043.88C574.244 1039.92 575.364 1037.06 577.604 1035.3C579.884 1033.5 583.144 1032.6 587.384 1032.6H592.064C592.504 1032.6 592.864 1032.74 593.144 1033.02C593.424 1033.3 593.564 1033.66 593.564 1034.1V1038.96C593.564 1039.36 593.424 1039.72 593.144 1040.04C592.864 1040.32 592.504 1040.46 592.064 1040.46H587.864C586.544 1040.46 585.604 1040.78 585.044 1041.42C584.484 1042.02 584.204 1042.94 584.204 1044.18V1045.8H591.464C591.904 1045.8 592.264 1045.94 592.544 1046.22C592.824 1046.5 592.964 1046.86 592.964 1047.3V1052.16C592.964 1052.56 592.824 1052.92 592.544 1053.24C592.264 1053.52 591.904 1053.66 591.464 1053.66H584.204V1075.5C584.204 1075.9 584.064 1076.26 583.784 1076.58C583.504 1076.86 583.144 1077 582.704 1077H575.744ZM598.806 1077C598.366 1077 598.006 1076.86 597.726 1076.58C597.446 1076.3 597.306 1075.94 597.306 1075.5V1047.3C597.306 1046.86 597.446 1046.5 597.726 1046.22C598.006 1045.94 598.366 1045.8 598.806 1045.8H605.706C606.146 1045.8 606.506 1045.96 606.786 1046.28C607.106 1046.56 607.266 1046.9 607.266 1047.3V1049.7C609.466 1047.1 612.426 1045.8 616.146 1045.8H618.786C619.226 1045.8 619.586 1045.94 619.866 1046.22C620.146 1046.5 620.286 1046.86 620.286 1047.3V1053.48C620.286 1053.88 620.146 1054.24 619.866 1054.56C619.586 1054.84 619.226 1054.98 618.786 1054.98H612.966C611.326 1054.98 610.046 1055.44 609.126 1056.36C608.246 1057.24 607.806 1058.5 607.806 1060.14V1075.5C607.806 1075.94 607.646 1076.3 607.326 1076.58C607.046 1076.86 606.686 1077 606.246 1077H598.806ZM639.019 1077.6C634.059 1077.6 630.239 1076.42 627.559 1074.06C624.879 1071.7 623.419 1068.38 623.179 1064.1C623.139 1063.58 623.119 1062.68 623.119 1061.4C623.119 1060.12 623.139 1059.22 623.179 1058.7C623.419 1054.46 624.919 1051.16 627.679 1048.8C630.439 1046.4 634.219 1045.2 639.019 1045.2C643.859 1045.2 647.659 1046.4 650.419 1048.8C653.179 1051.16 654.679 1054.46 654.919 1058.7C654.959 1059.22 654.979 1060.12 654.979 1061.4C654.979 1062.68 654.959 1063.58 654.919 1064.1C654.679 1068.38 653.219 1071.7 650.539 1074.06C647.859 1076.42 644.019 1077.6 639.019 1077.6ZM639.019 1070.28C640.779 1070.28 642.079 1069.76 642.919 1068.72C643.759 1067.64 644.239 1066 644.359 1063.8C644.399 1063.4 644.419 1062.6 644.419 1061.4C644.419 1060.2 644.399 1059.4 644.359 1059C644.239 1056.84 643.739 1055.22 642.859 1054.14C642.019 1053.06 640.739 1052.52 639.019 1052.52C635.699 1052.52 633.939 1054.68 633.739 1059L633.679 1061.4L633.739 1063.8C633.819 1066 634.279 1067.64 635.119 1068.72C635.999 1069.76 637.299 1070.28 639.019 1070.28ZM662.438 1077C661.998 1077 661.638 1076.86 661.358 1076.58C661.078 1076.3 660.938 1075.94 660.938 1075.5V1047.3C660.938 1046.86 661.078 1046.5 661.358 1046.22C661.638 1045.94 661.998 1045.8 662.438 1045.8H668.978C669.418 1045.8 669.778 1045.94 670.058 1046.22C670.338 1046.5 670.478 1046.86 670.478 1047.3V1049.34C671.398 1048.14 672.618 1047.16 674.138 1046.4C675.698 1045.6 677.438 1045.2 679.358 1045.2C683.758 1045.2 686.798 1046.92 688.478 1050.36C689.438 1048.84 690.778 1047.6 692.498 1046.64C694.218 1045.68 696.058 1045.2 698.018 1045.2C701.298 1045.2 703.958 1046.32 705.998 1048.56C708.078 1050.76 709.118 1054.06 709.118 1058.46V1075.5C709.118 1075.9 708.978 1076.26 708.698 1076.58C708.418 1076.86 708.058 1077 707.618 1077H700.658C700.218 1077 699.838 1076.86 699.518 1076.58C699.238 1076.3 699.098 1075.94 699.098 1075.5V1058.88C699.098 1056.88 698.678 1055.44 697.838 1054.56C697.038 1053.68 695.938 1053.24 694.538 1053.24C693.258 1053.24 692.198 1053.7 691.358 1054.62C690.518 1055.5 690.098 1056.92 690.098 1058.88V1075.5C690.098 1075.9 689.958 1076.26 689.678 1076.58C689.398 1076.86 689.038 1077 688.598 1077H681.638C681.198 1077 680.838 1076.86 680.558 1076.58C680.278 1076.3 680.138 1075.94 680.138 1075.5V1058.88C680.138 1056.92 679.698 1055.5 678.818 1054.62C677.978 1053.7 676.898 1053.24 675.578 1053.24C674.298 1053.24 673.218 1053.7 672.338 1054.62C671.498 1055.5 671.078 1056.9 671.078 1058.82V1075.5C671.078 1075.9 670.938 1076.26 670.658 1076.58C670.378 1076.86 670.018 1077 669.578 1077H662.438ZM743.461 1077C735.181 1077 731.041 1073.06 731.041 1065.18V1053.66H726.361C725.921 1053.66 725.541 1053.52 725.221 1053.24C724.941 1052.96 724.801 1052.6 724.801 1052.16V1047.3C724.801 1046.86 724.941 1046.5 725.221 1046.22C725.541 1045.94 725.921 1045.8 726.361 1045.8H731.041V1035.9C731.041 1035.46 731.181 1035.1 731.461 1034.82C731.781 1034.54 732.141 1034.4 732.541 1034.4H739.501C739.941 1034.4 740.301 1034.54 740.581 1034.82C740.861 1035.1 741.001 1035.46 741.001 1035.9V1045.8H748.501C748.941 1045.8 749.301 1045.94 749.581 1046.22C749.901 1046.5 750.061 1046.86 750.061 1047.3V1052.16C750.061 1052.6 749.901 1052.96 749.581 1053.24C749.301 1053.52 748.941 1053.66 748.501 1053.66H741.001V1064.34C741.001 1067.3 742.141 1068.78 744.421 1068.78H749.041C749.481 1068.78 749.841 1068.92 750.121 1069.2C750.401 1069.48 750.541 1069.84 750.541 1070.28V1075.5C750.541 1075.9 750.401 1076.26 750.121 1076.58C749.841 1076.86 749.481 1077 749.041 1077H743.461ZM757.009 1077C756.609 1077 756.249 1076.86 755.929 1076.58C755.649 1076.26 755.509 1075.9 755.509 1075.5V1035.9C755.509 1035.46 755.649 1035.1 755.929 1034.82C756.249 1034.54 756.609 1034.4 757.009 1034.4H764.689C765.129 1034.4 765.489 1034.54 765.769 1034.82C766.049 1035.1 766.189 1035.46 766.189 1035.9V1049.28C768.589 1046.56 771.749 1045.2 775.669 1045.2C777.989 1045.2 780.049 1045.72 781.849 1046.76C783.689 1047.8 785.129 1049.34 786.169 1051.38C787.209 1053.42 787.729 1055.88 787.729 1058.76V1075.5C787.729 1075.9 787.589 1076.26 787.309 1076.58C787.029 1076.86 786.669 1077 786.229 1077H778.489C778.089 1077 777.729 1076.86 777.409 1076.58C777.129 1076.26 776.989 1075.9 776.989 1075.5V1059.12C776.989 1057.24 776.529 1055.8 775.609 1054.8C774.729 1053.76 773.429 1053.24 771.709 1053.24C769.989 1053.24 768.629 1053.76 767.629 1054.8C766.669 1055.8 766.189 1057.24 766.189 1059.12V1075.5C766.189 1075.94 766.049 1076.3 765.769 1076.58C765.489 1076.86 765.129 1077 764.689 1077H757.009ZM808.932 1077.6C804.132 1077.6 800.352 1076.3 797.592 1073.7C794.832 1071.1 793.392 1067.32 793.272 1062.36V1060.26C793.432 1055.54 794.892 1051.86 797.652 1049.22C800.452 1046.54 804.192 1045.2 808.872 1045.2C812.272 1045.2 815.132 1045.9 817.452 1047.3C819.812 1048.66 821.572 1050.54 822.732 1052.94C823.932 1055.34 824.532 1058.1 824.532 1061.22V1062.66C824.532 1063.06 824.392 1063.42 824.112 1063.74C823.832 1064.02 823.472 1064.16 823.032 1064.16H803.832V1064.58C803.912 1066.46 804.372 1067.98 805.212 1069.14C806.052 1070.3 807.272 1070.88 808.872 1070.88C809.872 1070.88 810.692 1070.68 811.332 1070.28C811.972 1069.84 812.552 1069.32 813.072 1068.72C813.432 1068.28 813.712 1068.02 813.912 1067.94C814.152 1067.82 814.512 1067.76 814.992 1067.76H822.432C822.792 1067.76 823.092 1067.88 823.332 1068.12C823.612 1068.32 823.752 1068.6 823.752 1068.96C823.752 1070 823.152 1071.2 821.952 1072.56C820.792 1073.92 819.092 1075.1 816.852 1076.1C814.612 1077.1 811.972 1077.6 808.932 1077.6ZM813.972 1058.22V1058.1C813.972 1056.14 813.512 1054.6 812.592 1053.48C811.712 1052.32 810.472 1051.74 808.872 1051.74C807.312 1051.74 806.072 1052.32 805.152 1053.48C804.272 1054.6 803.832 1056.14 803.832 1058.1V1058.22H813.972ZM855.771 1077.6C852.531 1077.6 849.811 1077.14 847.611 1076.22C845.451 1075.3 843.851 1074.2 842.811 1072.92C841.771 1071.64 841.251 1070.5 841.251 1069.5C841.251 1069.1 841.391 1068.78 841.671 1068.54C841.991 1068.26 842.331 1068.12 842.691 1068.12H849.531C849.771 1068.12 849.991 1068.22 850.191 1068.42C850.671 1068.74 851.031 1069 851.271 1069.2C852.151 1069.84 852.911 1070.32 853.551 1070.64C854.231 1070.92 855.051 1071.06 856.011 1071.06C857.171 1071.06 858.111 1070.84 858.831 1070.4C859.591 1069.92 859.971 1069.26 859.971 1068.42C859.971 1067.74 859.771 1067.2 859.371 1066.8C859.011 1066.4 858.291 1066.02 857.211 1065.66C856.131 1065.26 854.491 1064.84 852.291 1064.4C848.971 1063.72 846.411 1062.62 844.611 1061.1C842.851 1059.54 841.971 1057.46 841.971 1054.86C841.971 1053.22 842.491 1051.66 843.531 1050.18C844.571 1048.7 846.111 1047.5 848.151 1046.58C850.231 1045.66 852.691 1045.2 855.531 1045.2C858.371 1045.2 860.851 1045.64 862.971 1046.52C865.091 1047.4 866.691 1048.48 867.771 1049.76C868.891 1051 869.451 1052.14 869.451 1053.18C869.451 1053.54 869.311 1053.86 869.031 1054.14C868.791 1054.42 868.491 1054.56 868.131 1054.56H861.891C861.571 1054.56 861.271 1054.46 860.991 1054.26C860.471 1053.98 860.011 1053.68 859.611 1053.36C858.931 1052.84 858.291 1052.44 857.691 1052.16C857.091 1051.88 856.351 1051.74 855.471 1051.74C854.431 1051.74 853.591 1051.98 852.951 1052.46C852.351 1052.94 852.051 1053.56 852.051 1054.32C852.051 1054.92 852.211 1055.42 852.531 1055.82C852.891 1056.22 853.611 1056.62 854.691 1057.02C855.811 1057.38 857.451 1057.76 859.611 1058.16C863.491 1058.84 866.311 1060.04 868.071 1061.76C869.871 1063.48 870.771 1065.5 870.771 1067.82C870.771 1070.78 869.451 1073.16 866.811 1074.96C864.171 1076.72 860.491 1077.6 855.771 1077.6ZM877.535 1041.3C877.095 1041.3 876.735 1041.16 876.455 1040.88C876.175 1040.6 876.035 1040.24 876.035 1039.8V1034.4C876.035 1033.96 876.175 1033.6 876.455 1033.32C876.735 1033.04 877.095 1032.9 877.535 1032.9H884.735C885.175 1032.9 885.535 1033.04 885.815 1033.32C886.095 1033.6 886.235 1033.96 886.235 1034.4V1039.8C886.235 1040.24 886.095 1040.6 885.815 1040.88C885.535 1041.16 885.175 1041.3 884.735 1041.3H877.535ZM877.595 1077C877.155 1077 876.795 1076.86 876.515 1076.58C876.235 1076.3 876.095 1075.94 876.095 1075.5V1047.3C876.095 1046.86 876.235 1046.5 876.515 1046.22C876.795 1045.94 877.155 1045.8 877.595 1045.8H884.675C885.115 1045.8 885.475 1045.94 885.755 1046.22C886.035 1046.5 886.175 1046.86 886.175 1047.3V1075.5C886.175 1075.9 886.035 1076.26 885.755 1076.58C885.475 1076.86 885.115 1077 884.675 1077H877.595ZM904.903 1077.6C900.983 1077.6 897.923 1076.38 895.723 1073.94C893.563 1071.46 892.383 1067.98 892.183 1063.5L892.123 1061.4L892.183 1059.24C892.343 1054.92 893.523 1051.5 895.723 1048.98C897.963 1046.46 901.023 1045.2 904.903 1045.2C908.543 1045.2 911.483 1046.38 913.723 1048.74V1035.9C913.723 1035.46 913.863 1035.1 914.143 1034.82C914.423 1034.54 914.783 1034.4 915.223 1034.4H922.543C922.983 1034.4 923.343 1034.54 923.623 1034.82C923.903 1035.1 924.043 1035.46 924.043 1035.9V1075.5C924.043 1075.9 923.903 1076.26 923.623 1076.58C923.343 1076.86 922.983 1077 922.543 1077H915.763C915.363 1077 915.003 1076.86 914.683 1076.58C914.403 1076.26 914.263 1075.9 914.263 1075.5V1073.58C912.063 1076.26 908.943 1077.6 904.903 1077.6ZM908.203 1069.56C910.003 1069.56 911.343 1069 912.223 1067.88C913.103 1066.72 913.603 1065.24 913.723 1063.44C913.763 1062.92 913.783 1062.16 913.783 1061.16C913.783 1060.2 913.763 1059.46 913.723 1058.94C913.643 1057.3 913.143 1055.94 912.223 1054.86C911.303 1053.78 909.963 1053.24 908.203 1053.24C906.323 1053.24 904.963 1053.8 904.123 1054.92C903.323 1056.04 902.863 1057.58 902.743 1059.54C902.703 1059.94 902.683 1060.56 902.683 1061.4C902.683 1062.24 902.703 1062.86 902.743 1063.26C902.863 1065.22 903.323 1066.76 904.123 1067.88C904.963 1069 906.323 1069.56 908.203 1069.56ZM945.514 1077.6C940.714 1077.6 936.934 1076.3 934.174 1073.7C931.414 1071.1 929.974 1067.32 929.854 1062.36V1060.26C930.014 1055.54 931.474 1051.86 934.234 1049.22C937.034 1046.54 940.774 1045.2 945.454 1045.2C948.854 1045.2 951.714 1045.9 954.034 1047.3C956.394 1048.66 958.154 1050.54 959.314 1052.94C960.514 1055.34 961.114 1058.1 961.114 1061.22V1062.66C961.114 1063.06 960.974 1063.42 960.694 1063.74C960.414 1064.02 960.054 1064.16 959.614 1064.16H940.414V1064.58C940.494 1066.46 940.954 1067.98 941.794 1069.14C942.634 1070.3 943.854 1070.88 945.454 1070.88C946.454 1070.88 947.274 1070.68 947.914 1070.28C948.554 1069.84 949.134 1069.32 949.654 1068.72C950.014 1068.28 950.294 1068.02 950.494 1067.94C950.734 1067.82 951.094 1067.76 951.574 1067.76H959.014C959.374 1067.76 959.674 1067.88 959.914 1068.12C960.194 1068.32 960.334 1068.6 960.334 1068.96C960.334 1070 959.734 1071.2 958.534 1072.56C957.374 1073.92 955.674 1075.1 953.434 1076.1C951.194 1077.1 948.554 1077.6 945.514 1077.6ZM950.554 1058.22V1058.1C950.554 1056.14 950.094 1054.6 949.174 1053.48C948.294 1052.32 947.054 1051.74 945.454 1051.74C943.894 1051.74 942.654 1052.32 941.734 1053.48C940.854 1054.6 940.414 1056.14 940.414 1058.1V1058.22H950.554ZM985.819 1077.6C981.819 1077.6 978.719 1076.26 976.519 1073.58V1075.5C976.519 1075.9 976.379 1076.26 976.099 1076.58C975.819 1076.86 975.459 1077 975.019 1077H968.239C967.839 1077 967.479 1076.86 967.159 1076.58C966.879 1076.26 966.739 1075.9 966.739 1075.5V1035.9C966.739 1035.46 966.879 1035.1 967.159 1034.82C967.479 1034.54 967.839 1034.4 968.239 1034.4H975.559C975.999 1034.4 976.359 1034.54 976.639 1034.82C976.919 1035.1 977.059 1035.46 977.059 1035.9V1048.74C979.299 1046.38 982.219 1045.2 985.819 1045.2C989.699 1045.2 992.759 1046.46 994.999 1048.98C997.239 1051.5 998.439 1054.92 998.599 1059.24C998.639 1059.76 998.659 1060.48 998.659 1061.4C998.659 1062.28 998.639 1062.98 998.599 1063.5C998.399 1067.98 997.199 1071.46 994.999 1073.94C992.799 1076.38 989.739 1077.6 985.819 1077.6ZM982.579 1069.56C984.459 1069.56 985.799 1069 986.599 1067.88C987.439 1066.76 987.919 1065.22 988.039 1063.26C988.119 1062.46 988.159 1061.84 988.159 1061.4C988.159 1060.96 988.119 1060.34 988.039 1059.54C987.919 1057.58 987.439 1056.04 986.599 1054.92C985.799 1053.8 984.459 1053.24 982.579 1053.24C980.819 1053.24 979.479 1053.78 978.559 1054.86C977.639 1055.94 977.139 1057.3 977.059 1058.94L976.999 1061.16L977.059 1063.44C977.179 1065.24 977.659 1066.72 978.499 1067.88C979.379 1069 980.739 1069.56 982.579 1069.56ZM1013.95 1077.6C1011.83 1077.6 1009.89 1077.2 1008.13 1076.4C1006.41 1075.56 1005.05 1074.44 1004.05 1073.04C1003.09 1071.6 1002.61 1070.02 1002.61 1068.3C1002.61 1065.54 1003.73 1063.32 1005.97 1061.64C1008.25 1059.96 1011.37 1058.8 1015.33 1058.16L1022.83 1057.02V1056.18C1022.83 1054.66 1022.51 1053.54 1021.87 1052.82C1021.23 1052.1 1020.15 1051.74 1018.63 1051.74C1017.71 1051.74 1016.95 1051.9 1016.35 1052.22C1015.75 1052.54 1015.13 1052.98 1014.49 1053.54C1013.93 1054.02 1013.51 1054.34 1013.23 1054.5C1013.11 1054.82 1012.89 1054.98 1012.57 1054.98H1006.03C1005.63 1054.98 1005.29 1054.86 1005.01 1054.62C1004.77 1054.34 1004.67 1054.02 1004.71 1053.66C1004.75 1052.58 1005.27 1051.38 1006.27 1050.06C1007.31 1048.74 1008.87 1047.6 1010.95 1046.64C1013.07 1045.68 1015.67 1045.2 1018.75 1045.2C1023.67 1045.2 1027.31 1046.3 1029.67 1048.5C1032.03 1050.66 1033.21 1053.58 1033.21 1057.26V1075.5C1033.21 1075.9 1033.07 1076.26 1032.79 1076.58C1032.51 1076.86 1032.15 1077 1031.71 1077H1024.75C1024.35 1077 1023.99 1076.86 1023.67 1076.58C1023.39 1076.26 1023.25 1075.9 1023.25 1075.5V1073.4C1022.37 1074.64 1021.13 1075.66 1019.53 1076.46C1017.97 1077.22 1016.11 1077.6 1013.95 1077.6ZM1016.77 1070.76C1018.61 1070.76 1020.09 1070.16 1021.21 1068.96C1022.37 1067.76 1022.95 1066 1022.95 1063.68V1062.84L1017.85 1063.74C1014.25 1064.38 1012.45 1065.64 1012.45 1067.52C1012.45 1068.52 1012.87 1069.32 1013.71 1069.92C1014.55 1070.48 1015.57 1070.76 1016.77 1070.76ZM1041.48 1077C1041.04 1077 1040.68 1076.86 1040.4 1076.58C1040.12 1076.3 1039.98 1075.94 1039.98 1075.5V1047.3C1039.98 1046.86 1040.12 1046.5 1040.4 1046.22C1040.68 1045.94 1041.04 1045.8 1041.48 1045.8H1048.38C1048.82 1045.8 1049.18 1045.96 1049.46 1046.28C1049.78 1046.56 1049.94 1046.9 1049.94 1047.3V1049.7C1052.14 1047.1 1055.1 1045.8 1058.82 1045.8H1061.46C1061.9 1045.8 1062.26 1045.94 1062.54 1046.22C1062.82 1046.5 1062.96 1046.86 1062.96 1047.3V1053.48C1062.96 1053.88 1062.82 1054.24 1062.54 1054.56C1062.26 1054.84 1061.9 1054.98 1061.46 1054.98H1055.64C1054 1054.98 1052.72 1055.44 1051.8 1056.36C1050.92 1057.24 1050.48 1058.5 1050.48 1060.14V1075.5C1050.48 1075.94 1050.32 1076.3 1050 1076.58C1049.72 1076.86 1049.36 1077 1048.92 1077H1041.48ZM1088.19 1077.6C1086.07 1077.6 1084.13 1077.2 1082.37 1076.4C1080.65 1075.56 1079.29 1074.44 1078.29 1073.04C1077.33 1071.6 1076.85 1070.02 1076.85 1068.3C1076.85 1065.54 1077.97 1063.32 1080.21 1061.64C1082.49 1059.96 1085.61 1058.8 1089.57 1058.16L1097.07 1057.02V1056.18C1097.07 1054.66 1096.75 1053.54 1096.11 1052.82C1095.47 1052.1 1094.39 1051.74 1092.87 1051.74C1091.95 1051.74 1091.19 1051.9 1090.59 1052.22C1089.99 1052.54 1089.37 1052.98 1088.73 1053.54C1088.17 1054.02 1087.75 1054.34 1087.47 1054.5C1087.35 1054.82 1087.13 1054.98 1086.81 1054.98H1080.27C1079.87 1054.98 1079.53 1054.86 1079.25 1054.62C1079.01 1054.34 1078.91 1054.02 1078.95 1053.66C1078.99 1052.58 1079.51 1051.38 1080.51 1050.06C1081.55 1048.74 1083.11 1047.6 1085.19 1046.64C1087.31 1045.68 1089.91 1045.2 1092.99 1045.2C1097.91 1045.2 1101.55 1046.3 1103.91 1048.5C1106.27 1050.66 1107.45 1053.58 1107.45 1057.26V1075.5C1107.45 1075.9 1107.31 1076.26 1107.03 1076.58C1106.75 1076.86 1106.39 1077 1105.95 1077H1098.99C1098.59 1077 1098.23 1076.86 1097.91 1076.58C1097.63 1076.26 1097.49 1075.9 1097.49 1075.5V1073.4C1096.61 1074.64 1095.37 1075.66 1093.77 1076.46C1092.21 1077.22 1090.35 1077.6 1088.19 1077.6ZM1091.01 1070.76C1092.85 1070.76 1094.33 1070.16 1095.45 1068.96C1096.61 1067.76 1097.19 1066 1097.19 1063.68V1062.84L1092.09 1063.74C1088.49 1064.38 1086.69 1065.64 1086.69 1067.52C1086.69 1068.52 1087.11 1069.32 1087.95 1069.92C1088.79 1070.48 1089.81 1070.76 1091.01 1070.76ZM1115.72 1077C1115.28 1077 1114.92 1076.86 1114.64 1076.58C1114.36 1076.3 1114.22 1075.94 1114.22 1075.5V1047.3C1114.22 1046.86 1114.36 1046.5 1114.64 1046.22C1114.92 1045.94 1115.28 1045.8 1115.72 1045.8H1122.62C1123.06 1045.8 1123.42 1045.94 1123.7 1046.22C1124.02 1046.5 1124.18 1046.86 1124.18 1047.3V1049.58C1125.26 1048.26 1126.64 1047.2 1128.32 1046.4C1130.04 1045.6 1131.98 1045.2 1134.14 1045.2C1137.66 1045.2 1140.52 1046.4 1142.72 1048.8C1144.92 1051.16 1146.02 1054.48 1146.02 1058.76V1075.5C1146.02 1075.9 1145.88 1076.26 1145.6 1076.58C1145.32 1076.86 1144.96 1077 1144.52 1077H1136.96C1136.56 1077 1136.2 1076.86 1135.88 1076.58C1135.6 1076.26 1135.46 1075.9 1135.46 1075.5V1059.12C1135.46 1057.24 1135 1055.8 1134.08 1054.8C1133.16 1053.76 1131.84 1053.24 1130.12 1053.24C1128.44 1053.24 1127.12 1053.76 1126.16 1054.8C1125.2 1055.8 1124.72 1057.24 1124.72 1059.12V1075.5C1124.72 1075.9 1124.58 1076.26 1124.3 1076.58C1124.02 1076.86 1123.66 1077 1123.22 1077H1115.72ZM1164.41 1077.6C1160.49 1077.6 1157.43 1076.38 1155.23 1073.94C1153.07 1071.46 1151.89 1067.98 1151.69 1063.5L1151.63 1061.4L1151.69 1059.24C1151.85 1054.92 1153.03 1051.5 1155.23 1048.98C1157.47 1046.46 1160.53 1045.2 1164.41 1045.2C1168.05 1045.2 1170.99 1046.38 1173.23 1048.74V1035.9C1173.23 1035.46 1173.37 1035.1 1173.65 1034.82C1173.93 1034.54 1174.29 1034.4 1174.73 1034.4H1182.05C1182.49 1034.4 1182.85 1034.54 1183.13 1034.82C1183.41 1035.1 1183.55 1035.46 1183.55 1035.9V1075.5C1183.55 1075.9 1183.41 1076.26 1183.13 1076.58C1182.85 1076.86 1182.49 1077 1182.05 1077H1175.27C1174.87 1077 1174.51 1076.86 1174.19 1076.58C1173.91 1076.26 1173.77 1075.9 1173.77 1075.5V1073.58C1171.57 1076.26 1168.45 1077.6 1164.41 1077.6ZM1167.71 1069.56C1169.51 1069.56 1170.85 1069 1171.73 1067.88C1172.61 1066.72 1173.11 1065.24 1173.23 1063.44C1173.27 1062.92 1173.29 1062.16 1173.29 1061.16C1173.29 1060.2 1173.27 1059.46 1173.23 1058.94C1173.15 1057.3 1172.65 1055.94 1171.73 1054.86C1170.81 1053.78 1169.47 1053.24 1167.71 1053.24C1165.83 1053.24 1164.47 1053.8 1163.63 1054.92C1162.83 1056.04 1162.37 1057.58 1162.25 1059.54C1162.21 1059.94 1162.19 1060.56 1162.19 1061.4C1162.19 1062.24 1162.21 1062.86 1162.25 1063.26C1162.37 1065.22 1162.83 1066.76 1163.63 1067.88C1164.47 1069 1165.83 1069.56 1167.71 1069.56ZM602.909 1148.6C599.669 1148.6 596.949 1148.14 594.749 1147.22C592.589 1146.3 590.989 1145.2 589.949 1143.92C588.909 1142.64 588.389 1141.5 588.389 1140.5C588.389 1140.1 588.529 1139.78 588.809 1139.54C589.129 1139.26 589.469 1139.12 589.829 1139.12H596.669C596.909 1139.12 597.129 1139.22 597.329 1139.42C597.809 1139.74 598.169 1140 598.409 1140.2C599.289 1140.84 600.049 1141.32 600.689 1141.64C601.369 1141.92 602.189 1142.06 603.149 1142.06C604.309 1142.06 605.249 1141.84 605.969 1141.4C606.729 1140.92 607.109 1140.26 607.109 1139.42C607.109 1138.74 606.909 1138.2 606.509 1137.8C606.149 1137.4 605.429 1137.02 604.349 1136.66C603.269 1136.26 601.629 1135.84 599.429 1135.4C596.109 1134.72 593.549 1133.62 591.749 1132.1C589.989 1130.54 589.109 1128.46 589.109 1125.86C589.109 1124.22 589.629 1122.66 590.669 1121.18C591.709 1119.7 593.249 1118.5 595.289 1117.58C597.369 1116.66 599.829 1116.2 602.669 1116.2C605.509 1116.2 607.989 1116.64 610.109 1117.52C612.229 1118.4 613.829 1119.48 614.909 1120.76C616.029 1122 616.589 1123.14 616.589 1124.18C616.589 1124.54 616.449 1124.86 616.169 1125.14C615.929 1125.42 615.629 1125.56 615.269 1125.56H609.029C608.709 1125.56 608.409 1125.46 608.129 1125.26C607.609 1124.98 607.149 1124.68 606.749 1124.36C606.069 1123.84 605.429 1123.44 604.829 1123.16C604.229 1122.88 603.489 1122.74 602.609 1122.74C601.569 1122.74 600.729 1122.98 600.089 1123.46C599.489 1123.94 599.189 1124.56 599.189 1125.32C599.189 1125.92 599.349 1126.42 599.669 1126.82C600.029 1127.22 600.749 1127.62 601.829 1128.02C602.949 1128.38 604.589 1128.76 606.749 1129.16C610.629 1129.84 613.449 1131.04 615.209 1132.76C617.009 1134.48 617.909 1136.5 617.909 1138.82C617.909 1141.78 616.589 1144.16 613.949 1145.96C611.309 1147.72 607.629 1148.6 602.909 1148.6ZM624.733 1148C624.333 1148 623.973 1147.86 623.653 1147.58C623.373 1147.26 623.233 1146.9 623.233 1146.5V1106.9C623.233 1106.46 623.373 1106.1 623.653 1105.82C623.973 1105.54 624.333 1105.4 624.733 1105.4H632.413C632.853 1105.4 633.213 1105.54 633.493 1105.82C633.773 1106.1 633.913 1106.46 633.913 1106.9V1120.28C636.313 1117.56 639.473 1116.2 643.393 1116.2C645.713 1116.2 647.773 1116.72 649.573 1117.76C651.413 1118.8 652.853 1120.34 653.893 1122.38C654.933 1124.42 655.453 1126.88 655.453 1129.76V1146.5C655.453 1146.9 655.313 1147.26 655.033 1147.58C654.753 1147.86 654.393 1148 653.953 1148H646.213C645.813 1148 645.453 1147.86 645.133 1147.58C644.853 1147.26 644.713 1146.9 644.713 1146.5V1130.12C644.713 1128.24 644.253 1126.8 643.333 1125.8C642.453 1124.76 641.153 1124.24 639.433 1124.24C637.713 1124.24 636.353 1124.76 635.353 1125.8C634.393 1126.8 633.913 1128.24 633.913 1130.12V1146.5C633.913 1146.94 633.773 1147.3 633.493 1147.58C633.213 1147.86 632.853 1148 632.413 1148H624.733ZM671.617 1148.6C669.497 1148.6 667.557 1148.2 665.797 1147.4C664.077 1146.56 662.717 1145.44 661.717 1144.04C660.757 1142.6 660.277 1141.02 660.277 1139.3C660.277 1136.54 661.397 1134.32 663.637 1132.64C665.917 1130.96 669.037 1129.8 672.997 1129.16L680.497 1128.02V1127.18C680.497 1125.66 680.177 1124.54 679.537 1123.82C678.897 1123.1 677.817 1122.74 676.297 1122.74C675.377 1122.74 674.617 1122.9 674.017 1123.22C673.417 1123.54 672.797 1123.98 672.157 1124.54C671.597 1125.02 671.177 1125.34 670.897 1125.5C670.777 1125.82 670.557 1125.98 670.237 1125.98H663.697C663.297 1125.98 662.957 1125.86 662.677 1125.62C662.437 1125.34 662.337 1125.02 662.377 1124.66C662.417 1123.58 662.937 1122.38 663.937 1121.06C664.977 1119.74 666.537 1118.6 668.617 1117.64C670.737 1116.68 673.337 1116.2 676.417 1116.2C681.337 1116.2 684.977 1117.3 687.337 1119.5C689.697 1121.66 690.877 1124.58 690.877 1128.26V1146.5C690.877 1146.9 690.737 1147.26 690.457 1147.58C690.177 1147.86 689.817 1148 689.377 1148H682.417C682.017 1148 681.657 1147.86 681.337 1147.58C681.057 1147.26 680.917 1146.9 680.917 1146.5V1144.4C680.037 1145.64 678.797 1146.66 677.197 1147.46C675.637 1148.22 673.777 1148.6 671.617 1148.6ZM674.437 1141.76C676.277 1141.76 677.757 1141.16 678.877 1139.96C680.037 1138.76 680.617 1137 680.617 1134.68V1133.84L675.517 1134.74C671.917 1135.38 670.117 1136.64 670.117 1138.52C670.117 1139.52 670.537 1140.32 671.377 1140.92C672.217 1141.48 673.237 1141.76 674.437 1141.76ZM699.147 1148C698.707 1148 698.347 1147.86 698.067 1147.58C697.787 1147.3 697.647 1146.94 697.647 1146.5V1118.3C697.647 1117.86 697.787 1117.5 698.067 1117.22C698.347 1116.94 698.707 1116.8 699.147 1116.8H706.047C706.487 1116.8 706.847 1116.96 707.127 1117.28C707.447 1117.56 707.607 1117.9 707.607 1118.3V1120.7C709.807 1118.1 712.767 1116.8 716.487 1116.8H719.127C719.567 1116.8 719.927 1116.94 720.207 1117.22C720.487 1117.5 720.627 1117.86 720.627 1118.3V1124.48C720.627 1124.88 720.487 1125.24 720.207 1125.56C719.927 1125.84 719.567 1125.98 719.127 1125.98H713.307C711.667 1125.98 710.387 1126.44 709.467 1127.36C708.587 1128.24 708.147 1129.5 708.147 1131.14V1146.5C708.147 1146.94 707.987 1147.3 707.667 1147.58C707.387 1147.86 707.027 1148 706.587 1148H699.147ZM740.854 1148C732.574 1148 728.434 1144.06 728.434 1136.18V1124.66H723.754C723.314 1124.66 722.934 1124.52 722.614 1124.24C722.334 1123.96 722.194 1123.6 722.194 1123.16V1118.3C722.194 1117.86 722.334 1117.5 722.614 1117.22C722.934 1116.94 723.314 1116.8 723.754 1116.8H728.434V1106.9C728.434 1106.46 728.574 1106.1 728.854 1105.82C729.174 1105.54 729.534 1105.4 729.934 1105.4H736.894C737.334 1105.4 737.694 1105.54 737.974 1105.82C738.254 1106.1 738.394 1106.46 738.394 1106.9V1116.8H745.894C746.334 1116.8 746.694 1116.94 746.974 1117.22C747.294 1117.5 747.454 1117.86 747.454 1118.3V1123.16C747.454 1123.6 747.294 1123.96 746.974 1124.24C746.694 1124.52 746.334 1124.66 745.894 1124.66H738.394V1135.34C738.394 1138.3 739.534 1139.78 741.814 1139.78H746.434C746.874 1139.78 747.234 1139.92 747.514 1140.2C747.794 1140.48 747.934 1140.84 747.934 1141.28V1146.5C747.934 1146.9 747.794 1147.26 747.514 1147.58C747.234 1147.86 746.874 1148 746.434 1148H740.854ZM780.015 1148.6C775.495 1148.6 771.835 1147.4 769.035 1145C766.235 1142.56 764.735 1139.18 764.535 1134.86L764.475 1132.46L764.535 1130C764.695 1125.68 766.175 1122.3 768.975 1119.86C771.815 1117.42 775.495 1116.2 780.015 1116.2C783.415 1116.2 786.275 1116.82 788.595 1118.06C790.955 1119.26 792.695 1120.72 793.815 1122.44C794.975 1124.12 795.595 1125.66 795.675 1127.06C795.715 1127.46 795.575 1127.82 795.255 1128.14C794.975 1128.42 794.615 1128.56 794.175 1128.56H786.555C786.115 1128.56 785.775 1128.46 785.535 1128.26C785.295 1128.06 785.075 1127.76 784.875 1127.36C784.395 1126.12 783.775 1125.24 783.015 1124.72C782.295 1124.2 781.355 1123.94 780.195 1123.94C776.915 1123.94 775.215 1126.06 775.095 1130.3L775.035 1132.58L775.095 1134.56C775.175 1136.72 775.635 1138.32 776.475 1139.36C777.355 1140.36 778.595 1140.86 780.195 1140.86C781.435 1140.86 782.415 1140.6 783.135 1140.08C783.855 1139.56 784.435 1138.68 784.875 1137.44C785.075 1137.04 785.295 1136.74 785.535 1136.54C785.775 1136.34 786.115 1136.24 786.555 1136.24H794.175C794.575 1136.24 794.915 1136.38 795.195 1136.66C795.515 1136.9 795.675 1137.22 795.675 1137.62C795.675 1138.9 795.115 1140.4 793.995 1142.12C792.915 1143.84 791.195 1145.36 788.835 1146.68C786.475 1147.96 783.535 1148.6 780.015 1148.6ZM802.565 1148C802.165 1148 801.805 1147.86 801.485 1147.58C801.205 1147.26 801.065 1146.9 801.065 1146.5V1106.9C801.065 1106.46 801.205 1106.1 801.485 1105.82C801.805 1105.54 802.165 1105.4 802.565 1105.4H810.245C810.685 1105.4 811.045 1105.54 811.325 1105.82C811.605 1106.1 811.745 1106.46 811.745 1106.9V1120.28C814.145 1117.56 817.305 1116.2 821.225 1116.2C823.545 1116.2 825.605 1116.72 827.405 1117.76C829.245 1118.8 830.685 1120.34 831.725 1122.38C832.765 1124.42 833.285 1126.88 833.285 1129.76V1146.5C833.285 1146.9 833.145 1147.26 832.865 1147.58C832.585 1147.86 832.225 1148 831.785 1148H824.045C823.645 1148 823.285 1147.86 822.965 1147.58C822.685 1147.26 822.545 1146.9 822.545 1146.5V1130.12C822.545 1128.24 822.085 1126.8 821.165 1125.8C820.285 1124.76 818.985 1124.24 817.265 1124.24C815.545 1124.24 814.185 1124.76 813.185 1125.8C812.225 1126.8 811.745 1128.24 811.745 1130.12V1146.5C811.745 1146.94 811.605 1147.3 811.325 1147.58C811.045 1147.86 810.685 1148 810.245 1148H802.565ZM849.449 1148.6C847.329 1148.6 845.389 1148.2 843.629 1147.4C841.909 1146.56 840.549 1145.44 839.549 1144.04C838.589 1142.6 838.109 1141.02 838.109 1139.3C838.109 1136.54 839.229 1134.32 841.469 1132.64C843.749 1130.96 846.869 1129.8 850.829 1129.16L858.329 1128.02V1127.18C858.329 1125.66 858.009 1124.54 857.369 1123.82C856.729 1123.1 855.649 1122.74 854.129 1122.74C853.209 1122.74 852.449 1122.9 851.849 1123.22C851.249 1123.54 850.629 1123.98 849.989 1124.54C849.429 1125.02 849.009 1125.34 848.729 1125.5C848.609 1125.82 848.389 1125.98 848.069 1125.98H841.529C841.129 1125.98 840.789 1125.86 840.509 1125.62C840.269 1125.34 840.169 1125.02 840.209 1124.66C840.249 1123.58 840.769 1122.38 841.769 1121.06C842.809 1119.74 844.369 1118.6 846.449 1117.64C848.569 1116.68 851.169 1116.2 854.249 1116.2C859.169 1116.2 862.809 1117.3 865.169 1119.5C867.529 1121.66 868.709 1124.58 868.709 1128.26V1146.5C868.709 1146.9 868.569 1147.26 868.289 1147.58C868.009 1147.86 867.649 1148 867.209 1148H860.249C859.849 1148 859.489 1147.86 859.169 1147.58C858.889 1147.26 858.749 1146.9 858.749 1146.5V1144.4C857.869 1145.64 856.629 1146.66 855.029 1147.46C853.469 1148.22 851.609 1148.6 849.449 1148.6ZM852.269 1141.76C854.109 1141.76 855.589 1141.16 856.709 1139.96C857.869 1138.76 858.449 1137 858.449 1134.68V1133.84L853.349 1134.74C849.749 1135.38 847.949 1136.64 847.949 1138.52C847.949 1139.52 848.369 1140.32 849.209 1140.92C850.049 1141.48 851.069 1141.76 852.269 1141.76ZM891.205 1148C882.925 1148 878.785 1144.06 878.785 1136.18V1124.66H874.105C873.665 1124.66 873.285 1124.52 872.965 1124.24C872.685 1123.96 872.545 1123.6 872.545 1123.16V1118.3C872.545 1117.86 872.685 1117.5 872.965 1117.22C873.285 1116.94 873.665 1116.8 874.105 1116.8H878.785V1106.9C878.785 1106.46 878.925 1106.1 879.205 1105.82C879.525 1105.54 879.885 1105.4 880.285 1105.4H887.245C887.685 1105.4 888.045 1105.54 888.325 1105.82C888.605 1106.1 888.745 1106.46 888.745 1106.9V1116.8H896.245C896.685 1116.8 897.045 1116.94 897.325 1117.22C897.645 1117.5 897.805 1117.86 897.805 1118.3V1123.16C897.805 1123.6 897.645 1123.96 897.325 1124.24C897.045 1124.52 896.685 1124.66 896.245 1124.66H888.745V1135.34C888.745 1138.3 889.885 1139.78 892.165 1139.78H896.785C897.225 1139.78 897.585 1139.92 897.865 1140.2C898.145 1140.48 898.285 1140.84 898.285 1141.28V1146.5C898.285 1146.9 898.145 1147.26 897.865 1147.58C897.585 1147.86 897.225 1148 896.785 1148H891.205ZM919.213 1148C910.933 1148 906.793 1144.06 906.793 1136.18V1124.66H902.113C901.673 1124.66 901.293 1124.52 900.973 1124.24C900.693 1123.96 900.553 1123.6 900.553 1123.16V1118.3C900.553 1117.86 900.693 1117.5 900.973 1117.22C901.293 1116.94 901.673 1116.8 902.113 1116.8H906.793V1106.9C906.793 1106.46 906.933 1106.1 907.213 1105.82C907.533 1105.54 907.893 1105.4 908.293 1105.4H915.253C915.693 1105.4 916.053 1105.54 916.333 1105.82C916.613 1106.1 916.753 1106.46 916.753 1106.9V1116.8H924.253C924.693 1116.8 925.053 1116.94 925.333 1117.22C925.653 1117.5 925.813 1117.86 925.813 1118.3V1123.16C925.813 1123.6 925.653 1123.96 925.333 1124.24C925.053 1124.52 924.693 1124.66 924.253 1124.66H916.753V1135.34C916.753 1138.3 917.893 1139.78 920.173 1139.78H924.793C925.233 1139.78 925.593 1139.92 925.873 1140.2C926.153 1140.48 926.293 1140.84 926.293 1141.28V1146.5C926.293 1146.9 926.153 1147.26 925.873 1147.58C925.593 1147.86 925.233 1148 924.793 1148H919.213ZM932.701 1112.3C932.261 1112.3 931.901 1112.16 931.621 1111.88C931.341 1111.6 931.201 1111.24 931.201 1110.8V1105.4C931.201 1104.96 931.341 1104.6 931.621 1104.32C931.901 1104.04 932.261 1103.9 932.701 1103.9H939.901C940.341 1103.9 940.701 1104.04 940.981 1104.32C941.261 1104.6 941.401 1104.96 941.401 1105.4V1110.8C941.401 1111.24 941.261 1111.6 940.981 1111.88C940.701 1112.16 940.341 1112.3 939.901 1112.3H932.701ZM932.761 1148C932.321 1148 931.961 1147.86 931.681 1147.58C931.401 1147.3 931.261 1146.94 931.261 1146.5V1118.3C931.261 1117.86 931.401 1117.5 931.681 1117.22C931.961 1116.94 932.321 1116.8 932.761 1116.8H939.841C940.281 1116.8 940.641 1116.94 940.921 1117.22C941.201 1117.5 941.341 1117.86 941.341 1118.3V1146.5C941.341 1146.9 941.201 1147.26 940.921 1147.58C940.641 1147.86 940.281 1148 939.841 1148H932.761ZM949.929 1148C949.489 1148 949.129 1147.86 948.849 1147.58C948.569 1147.3 948.429 1146.94 948.429 1146.5V1118.3C948.429 1117.86 948.569 1117.5 948.849 1117.22C949.129 1116.94 949.489 1116.8 949.929 1116.8H956.829C957.269 1116.8 957.629 1116.94 957.909 1117.22C958.229 1117.5 958.389 1117.86 958.389 1118.3V1120.58C959.469 1119.26 960.849 1118.2 962.529 1117.4C964.249 1116.6 966.189 1116.2 968.349 1116.2C971.869 1116.2 974.729 1117.4 976.929 1119.8C979.129 1122.16 980.229 1125.48 980.229 1129.76V1146.5C980.229 1146.9 980.089 1147.26 979.809 1147.58C979.529 1147.86 979.169 1148 978.729 1148H971.169C970.769 1148 970.409 1147.86 970.089 1147.58C969.809 1147.26 969.669 1146.9 969.669 1146.5V1130.12C969.669 1128.24 969.209 1126.8 968.289 1125.8C967.369 1124.76 966.049 1124.24 964.329 1124.24C962.649 1124.24 961.329 1124.76 960.369 1125.8C959.409 1126.8 958.929 1128.24 958.929 1130.12V1146.5C958.929 1146.9 958.789 1147.26 958.509 1147.58C958.229 1147.86 957.869 1148 957.429 1148H949.929ZM1002.28 1161.2C998.483 1161.2 995.403 1160.58 993.043 1159.34C990.683 1158.1 988.983 1156.68 987.943 1155.08C986.943 1153.48 986.443 1152.14 986.443 1151.06C986.443 1150.7 986.603 1150.38 986.923 1150.1C987.243 1149.82 987.603 1149.68 988.003 1149.68H995.623C996.023 1149.68 996.323 1149.76 996.523 1149.92C996.763 1150.12 996.983 1150.44 997.183 1150.88C997.583 1151.8 998.123 1152.52 998.803 1153.04C999.483 1153.6 1000.54 1153.88 1001.98 1153.88C1003.82 1153.88 1005.18 1153.42 1006.06 1152.5C1006.94 1151.62 1007.38 1150.12 1007.38 1148V1143.98C1005.34 1146.22 1002.42 1147.34 998.623 1147.34C994.583 1147.34 991.483 1146.16 989.323 1143.8C987.203 1141.4 986.043 1137.94 985.843 1133.42L985.783 1131.8C985.783 1126.96 986.863 1123.16 989.023 1120.4C991.183 1117.6 994.383 1116.2 998.623 1116.2C1000.66 1116.2 1002.46 1116.6 1004.02 1117.4C1005.58 1118.16 1006.9 1119.2 1007.98 1120.52V1118.3C1007.98 1117.86 1008.12 1117.5 1008.4 1117.22C1008.72 1116.94 1009.08 1116.8 1009.48 1116.8H1016.38C1016.82 1116.8 1017.18 1116.96 1017.46 1117.28C1017.78 1117.56 1017.94 1117.9 1017.94 1118.3V1147.16C1017.94 1151.72 1016.58 1155.2 1013.86 1157.6C1011.14 1160 1007.28 1161.2 1002.28 1161.2ZM1001.86 1139.54C1003.66 1139.54 1005 1139 1005.88 1137.92C1006.76 1136.8 1007.26 1135.4 1007.38 1133.72C1007.42 1133.44 1007.44 1132.82 1007.44 1131.86C1007.44 1130.94 1007.42 1130.34 1007.38 1130.06C1007.3 1128.38 1006.8 1127 1005.88 1125.92C1005 1124.8 1003.66 1124.24 1001.86 1124.24C999.983 1124.24 998.623 1124.8 997.783 1125.92C996.943 1127.04 996.483 1128.58 996.403 1130.54L996.343 1131.86C996.343 1134.22 996.743 1136.1 997.543 1137.5C998.343 1138.86 999.783 1139.54 1001.86 1139.54Z" fill="#E4E3E3"/>
</svg>
